<?xml version="1.0" encoding="UTF-8"?>
<svg xmlns="http://www.w3.org/2000/svg" xmlns:xlink="http://www.w3.org/1999/xlink" width="300px" height="300px" viewBox="0 0 300 300" version="1.1">
<defs>
<filter id="alpha" filterUnits="objectBoundingBox" x="0%" y="0%" width="100%" height="100%">
  <feColorMatrix type="matrix" in="SourceGraphic" values="0 0 0 0 1 0 0 0 0 1 0 0 0 0 1 0 0 0 1 0"/>
</filter>
<mask id="mask0">
  <g filter="url(#alpha)">
<rect x="0" y="0" width="300" height="300" style="fill:rgb(0%,0%,0%);fill-opacity:0.180392;stroke:none;"/>
  </g>
</mask>
<clipPath id="clip1">
  <rect x="0" y="0" width="300" height="300"/>
</clipPath>
<g id="surface5" clip-path="url(#clip1)">
<path style=" stroke:none;fill-rule:nonzero;fill:rgb(9.803922%,46.27451%,82.352942%);fill-opacity:1;" d="M 67.769531 74.84375 C 50.59375 84.019531 32.890625 93.628906 20.921875 108.996094 C 13.734375 118.234375 8.941406 129.234375 6.421875 140.675781 C 2.101562 160.207031 5.296875 182.855469 20.164062 196.285156 C 25.339844 200.980469 31.667969 204.292969 38.191406 206.839844 C 51.714844 212.105469 66.257812 214.261719 80.730469 213.144531 C 92.617188 212.214844 104.476562 209.089844 116.304688 210.574219 C 130.726562 212.386719 143.320312 220.824219 156.757812 226.378906 C 173.453125 233.257812 191.632812 235.734375 209.5625 233.578125 C 214.078125 233.027344 218.65625 232.152344 222.628906 229.933594 C 227.351562 227.292969 230.84375 222.984375 234.5625 219.046875 C 242.953125 210.132812 252.847656 202.765625 263.796875 197.285156 C 269.539062 194.410156 275.621094 192.03125 280.609375 187.984375 C 293.734375 177.359375 295.984375 158.351562 295.222656 141.492188 C 294.460938 124.632812 290.65625 106.027344 277.171875 95.785156 C 274.15625 93.496094 270.769531 91.726562 267.847656 89.320312 C 258.109375 81.292969 255.191406 67.855469 248.953125 56.867188 C 234.960938 32.304688 203.746094 21.546875 175.644531 24.589844 C 135.371094 28.945312 102.390625 56.347656 67.769531 74.839844 Z M 67.769531 74.84375 "/>
</g>
<mask id="mask1">
  <g filter="url(#alpha)">
<rect x="0" y="0" width="300" height="300" style="fill:rgb(0%,0%,0%);fill-opacity:0.180392;stroke:none;"/>
  </g>
</mask>
<clipPath id="clip2">
  <rect x="0" y="0" width="300" height="300"/>
</clipPath>
<g id="surface8" clip-path="url(#clip2)">
<path style=" stroke:none;fill-rule:nonzero;fill:rgb(11.372549%,15.294118%,25.490198%);fill-opacity:1;" d="M 50.003906 254.472656 L 27.179688 258.847656 C 26.40625 258.851562 25.789062 259.488281 25.792969 260.261719 C 25.800781 261.035156 26.4375 261.652344 27.210938 261.648438 C 27.277344 261.648438 27.34375 261.648438 27.40625 261.628906 L 285.257812 261.628906 C 286.027344 261.660156 286.679688 261.058594 286.710938 260.292969 C 286.738281 259.554688 286.1875 258.917969 285.449219 258.847656 L 252.179688 254.65625 L 251.988281 254.65625 L 50.292969 254.460938 C 50.195312 254.453125 50.101562 254.460938 50.003906 254.464844 Z M 50.003906 254.472656 "/>
</g>
<linearGradient id="linear0" gradientUnits="userSpaceOnUse" x1="65.050003" y1="1418.400024" x2="3.49" y2="1442.410034" gradientTransform="matrix(0.6,0,0,-0.6,245.4,967.763965)">
<stop offset="0" style="stop-color:rgb(92.54902%,76.862745%,84.313725%);stop-opacity:1;"/>
<stop offset="0.16" style="stop-color:rgb(92.941176%,79.607843%,83.529412%);stop-opacity:1;"/>
<stop offset="0.42" style="stop-color:rgb(93.72549%,83.137255%,81.960784%);stop-opacity:1;"/>
<stop offset="0.7" style="stop-color:rgb(94.901961%,91.764706%,78.823529%);stop-opacity:1;"/>
</linearGradient>
<linearGradient id="linear1" gradientUnits="userSpaceOnUse" x1="-132.149994" y1="1618.819946" x2="-144.779999" y2="1445.449951" gradientTransform="matrix(0.6,0,0,-0.6,245.4,967.763965)">
<stop offset="0" style="stop-color:rgb(13.72549%,12.156863%,12.54902%);stop-opacity:0;"/>
<stop offset="1" style="stop-color:rgb(13.72549%,12.156863%,12.54902%);stop-opacity:1;"/>
</linearGradient>
<linearGradient id="linear2" gradientUnits="userSpaceOnUse" x1="-164.130005" y1="-888.450012" x2="-161.139999" y2="-842.150024" gradientTransform="matrix(0.6,0,0,0.6,245.4,565.5)">
<stop offset="0" style="stop-color:rgb(0%,0%,0%);stop-opacity:1;"/>
<stop offset="0.1" style="stop-color:rgb(0%,0%,0%);stop-opacity:0.768627;"/>
<stop offset="0.99" style="stop-color:rgb(0%,0%,0%);stop-opacity:0;"/>
</linearGradient>
<linearGradient id="linear3" gradientUnits="userSpaceOnUse" x1="-197.639999" y1="1345.97998" x2="-576.359985" y2="1344.859985" gradientTransform="matrix(0.6,0,0,-0.6,245.4,967.763965)">
<stop offset="0" style="stop-color:rgb(13.72549%,12.156863%,12.54902%);stop-opacity:0;"/>
<stop offset="1" style="stop-color:rgb(13.72549%,12.156863%,12.54902%);stop-opacity:1;"/>
</linearGradient>
<linearGradient id="linear4" gradientUnits="userSpaceOnUse" x1="478.940002" y1="261.529999" x2="176.449997" y2="214.470001" gradientTransform="matrix(0.6,0,0,0.6,0,0)">
<stop offset="0" style="stop-color:rgb(13.72549%,12.156863%,12.54902%);stop-opacity:0;"/>
<stop offset="1" style="stop-color:rgb(13.72549%,12.156863%,12.54902%);stop-opacity:1;"/>
</linearGradient>
<linearGradient id="linear5" gradientUnits="userSpaceOnUse" x1="-114.57" y1="1489.550049" x2="-113.32" y2="1470.630005" gradientTransform="matrix(0.6,0,0,-0.6,245.4,967.763965)">
<stop offset="0" style="stop-color:rgb(13.72549%,12.156863%,12.54902%);stop-opacity:0;"/>
<stop offset="1" style="stop-color:rgb(13.72549%,12.156863%,12.54902%);stop-opacity:1;"/>
</linearGradient>
<linearGradient id="linear6" gradientUnits="userSpaceOnUse" x1="-114.57" y1="1440.560059" x2="-113.32" y2="1421.630005" gradientTransform="matrix(0.6,0,0,-0.6,245.4,967.763965)">
<stop offset="0" style="stop-color:rgb(13.72549%,12.156863%,12.54902%);stop-opacity:0;"/>
<stop offset="1" style="stop-color:rgb(13.72549%,12.156863%,12.54902%);stop-opacity:1;"/>
</linearGradient>
<linearGradient id="linear7" gradientUnits="userSpaceOnUse" x1="-105.449997" y1="1440.560059" x2="-104.209999" y2="1421.630005" gradientTransform="matrix(0.6,0,0,-0.6,245.4,967.763965)">
<stop offset="0" style="stop-color:rgb(13.72549%,12.156863%,12.54902%);stop-opacity:0;"/>
<stop offset="1" style="stop-color:rgb(13.72549%,12.156863%,12.54902%);stop-opacity:1;"/>
</linearGradient>
<linearGradient id="linear8" gradientUnits="userSpaceOnUse" x1="-96.279999" y1="1440.560059" x2="-95.040001" y2="1421.630005" gradientTransform="matrix(0.6,0,0,-0.6,245.4,967.763965)">
<stop offset="0" style="stop-color:rgb(13.72549%,12.156863%,12.54902%);stop-opacity:0;"/>
<stop offset="1" style="stop-color:rgb(13.72549%,12.156863%,12.54902%);stop-opacity:1;"/>
</linearGradient>
<linearGradient id="linear9" gradientUnits="userSpaceOnUse" x1="-114.57" y1="1341.900024" x2="-113.330002" y2="1322.969971" gradientTransform="matrix(0.6,0,0,-0.6,245.4,967.763965)">
<stop offset="0" style="stop-color:rgb(13.72549%,12.156863%,12.54902%);stop-opacity:0;"/>
<stop offset="1" style="stop-color:rgb(13.72549%,12.156863%,12.54902%);stop-opacity:1;"/>
</linearGradient>
<linearGradient id="linear10" gradientUnits="userSpaceOnUse" x1="-105.449997" y1="1341.900024" x2="-104.209999" y2="1322.969971" gradientTransform="matrix(0.6,0,0,-0.6,245.4,967.763965)">
<stop offset="0" style="stop-color:rgb(13.72549%,12.156863%,12.54902%);stop-opacity:0;"/>
<stop offset="1" style="stop-color:rgb(13.72549%,12.156863%,12.54902%);stop-opacity:1;"/>
</linearGradient>
<linearGradient id="linear11" gradientUnits="userSpaceOnUse" x1="-96.279999" y1="1341.900024" x2="-95.040001" y2="1322.969971" gradientTransform="matrix(0.6,0,0,-0.6,245.4,967.763965)">
<stop offset="0" style="stop-color:rgb(13.72549%,12.156863%,12.54902%);stop-opacity:0;"/>
<stop offset="1" style="stop-color:rgb(13.72549%,12.156863%,12.54902%);stop-opacity:1;"/>
</linearGradient>
<linearGradient id="linear12" gradientUnits="userSpaceOnUse" x1="-308.160004" y1="-536.960022" x2="-304.040009" y2="-572.440002" gradientTransform="matrix(0.6,0,0,0.6,245.4,565.5)">
<stop offset="0.1" style="stop-color:rgb(0%,0%,0%);stop-opacity:0.768627;"/>
<stop offset="0.99" style="stop-color:rgb(0%,0%,0%);stop-opacity:0;"/>
</linearGradient>
<linearGradient id="linear13" gradientUnits="userSpaceOnUse" x1="-292.609985" y1="-591.27002" x2="-313.709991" y2="-593.320007" gradientTransform="matrix(0.6,0,0,0.6,245.4,565.5)">
<stop offset="0.1" style="stop-color:rgb(0%,0%,0%);stop-opacity:0.768627;"/>
<stop offset="0.99" style="stop-color:rgb(0%,0%,0%);stop-opacity:0;"/>
</linearGradient>
<linearGradient id="linear14" gradientUnits="userSpaceOnUse" x1="-319.679993" y1="-590.570007" x2="-320.410004" y2="-543.219971" gradientTransform="matrix(0.6,0,0,0.6,245.4,565.5)">
<stop offset="0.36" style="stop-color:rgb(0%,0%,0%);stop-opacity:0.768627;"/>
<stop offset="0.99" style="stop-color:rgb(0%,0%,0%);stop-opacity:0;"/>
</linearGradient>
<linearGradient id="linear15" gradientUnits="userSpaceOnUse" x1="-321.630005" y1="-550.710022" x2="-320.880005" y2="-525.570007" gradientTransform="matrix(0.6,0,0,0.6,245.4,565.5)">
<stop offset="0" style="stop-color:rgb(0%,0%,0%);stop-opacity:1;"/>
<stop offset="0.1" style="stop-color:rgb(0%,0%,0%);stop-opacity:0.768627;"/>
<stop offset="0.99" style="stop-color:rgb(0%,0%,0%);stop-opacity:0;"/>
</linearGradient>
<linearGradient id="linear16" gradientUnits="userSpaceOnUse" x1="-295.890015" y1="-547.070007" x2="-312.140015" y2="-516.640015" gradientTransform="matrix(0.6,0,0,0.6,245.4,565.5)">
<stop offset="0" style="stop-color:rgb(0%,0%,0%);stop-opacity:1;"/>
<stop offset="0.1" style="stop-color:rgb(0%,0%,0%);stop-opacity:0.768627;"/>
<stop offset="0.99" style="stop-color:rgb(0%,0%,0%);stop-opacity:0;"/>
</linearGradient>
<linearGradient id="linear17" gradientUnits="userSpaceOnUse" x1="-294.980011" y1="-569.140015" x2="-304.5" y2="-536.27002" gradientTransform="matrix(0.6,0,0,0.6,245.4,565.5)">
<stop offset="0.1" style="stop-color:rgb(0%,0%,0%);stop-opacity:0.768627;"/>
<stop offset="0.99" style="stop-color:rgb(0%,0%,0%);stop-opacity:0;"/>
</linearGradient>
</defs>
<g id="surface1">
<use xlink:href="#surface5" mask="url(#mask0)"/>
<use xlink:href="#surface8" mask="url(#mask1)"/>
<path style=" stroke:none;fill-rule:nonzero;fill:rgb(9.803922%,46.27451%,82.352942%);fill-opacity:1;" d="M 278.765625 141.664062 C 278.398438 145.050781 274.222656 150.726562 268.453125 157.109375 C 260.386719 166.007812 249.210938 176.269531 240.964844 183.550781 L 240.964844 117.949219 C 243.070312 116.472656 245.230469 115.378906 247.1875 115.15625 C 254.460938 114.335938 269.140625 122.84375 269.140625 122.84375 C 269.140625 122.84375 279.988281 129.90625 278.765625 141.664062 Z M 278.765625 141.664062 "/>
<path style=" stroke:none;fill-rule:nonzero;fill:url(#linear0);" d="M 278.496094 104.347656 C 277.871094 106.902344 278.707031 110.441406 277.523438 112.789062 C 275.53125 116.730469 269.71875 119.339844 268.859375 123.664062 C 268.804688 123.917969 262.332031 127.039062 258.996094 125.96875 C 257.25 125.417969 256.363281 123.714844 257.707031 119.863281 C 258.125 118.667969 260.488281 118.222656 261.125 117.113281 L 260.992188 117.011719 C 257.765625 114.570312 257.410156 109.402344 258.085938 105.953125 C 258.75 102.503906 260.285156 99.191406 261.929688 96.035156 C 263.195312 93.605469 266.050781 92.292969 268.789062 92.335938 C 272.230469 92.394531 275.863281 93.769531 277.65625 96.707031 C 279.023438 98.945312 279.125 101.785156 278.503906 104.339844 Z M 278.496094 104.347656 "/>
<path style=" stroke:none;fill-rule:nonzero;fill:rgb(13.725491%,12.156863%,12.54902%);fill-opacity:1;" d="M 262.597656 85.765625 C 260.832031 86.695312 258.960938 87.792969 256.984375 87.492188 C 256.882812 88.457031 257.308594 89.398438 258.109375 89.957031 L 256.882812 90.234375 C 256.78125 90.238281 256.6875 90.292969 256.632812 90.378906 C 256.601562 90.46875 256.613281 90.5625 256.660156 90.648438 C 256.960938 91.351562 257.460938 91.957031 258.089844 92.386719 C 257.875 92.855469 257.082031 92.753906 256.804688 93.1875 C 256.691406 93.4375 256.691406 93.730469 256.804688 93.984375 C 257.082031 94.726562 257.542969 95.382812 258.15625 95.878906 C 257.425781 96.679688 257.878906 98.148438 258.894531 98.507812 C 259.972656 98.808594 261.101562 98.21875 261.460938 97.15625 C 261.511719 97.621094 261.402344 98.082031 261.160156 98.476562 C 264.496094 99.007812 268.066406 99.496094 271.140625 98.082031 C 270.996094 98.398438 270.917969 98.742188 270.910156 99.089844 C 271.65625 99.324219 272.441406 99.371094 273.203125 99.234375 C 273.367188 100.871094 273.214844 102.527344 272.773438 104.113281 C 272.496094 105.097656 272.105469 106.054688 271.925781 107.058594 C 271.699219 108.078125 271.878906 109.144531 272.429688 110.035156 C 272.957031 109.984375 273.335938 109.488281 273.535156 109.003906 C 273.679688 108.492188 273.898438 108.007812 274.1875 107.5625 C 274.984375 106.632812 276.640625 106.972656 277.277344 108.007812 C 277.914062 109.039062 277.675781 110.425781 277.0625 111.460938 C 276.292969 112.699219 275.050781 113.5625 273.625 113.851562 C 273.738281 114.960938 273.859375 116.070312 273.972656 117.175781 C 276.066406 115.183594 278.417969 113.476562 280.300781 111.300781 C 282.1875 109.121094 283.613281 106.339844 283.375 103.464844 C 283.222656 101.695312 282.457031 100.007812 282.394531 98.230469 C 282.367188 97.433594 282.484375 96.617188 282.457031 95.8125 C 282.304688 93.199219 280.609375 90.917969 278.136719 90.03125 C 277.121094 89.683594 276.007812 89.585938 275.105469 88.996094 C 273.988281 88.273438 273.40625 86.921875 272.296875 86.183594 C 271.105469 85.386719 269.25 85.0625 267.863281 84.664062 C 266.058594 84.160156 264.179688 84.925781 262.589844 85.757812 Z M 262.597656 85.765625 "/>
<path style=" stroke:none;fill-rule:nonzero;fill:rgb(100%,66.666669%,44.313726%);fill-opacity:1;" d="M 237.5625 123.414062 C 237.277344 123.589844 237.078125 123.875 237.011719 124.210938 C 237.042969 124.566406 237.304688 124.855469 237.652344 124.921875 C 237.996094 124.980469 238.34375 124.960938 238.675781 124.871094 L 240.695312 124.476562 C 239.605469 125.089844 238.699219 125.980469 238.074219 127.0625 C 237.925781 127.320312 237.9375 127.636719 238.109375 127.878906 C 238.378906 128.21875 238.835938 128.082031 239.203125 127.945312 L 240.953125 127.242188 L 239.761719 128.398438 C 239.386719 128.734375 239.0625 129.113281 238.800781 129.539062 C 238.6875 129.738281 238.597656 129.949219 238.546875 130.171875 C 238.480469 130.464844 238.65625 130.753906 238.945312 130.828125 C 239.035156 130.859375 239.128906 130.859375 239.21875 130.828125 C 239.953125 130.621094 240.628906 130.265625 241.210938 129.78125 C 240.78125 130.386719 240.300781 130.957031 239.777344 131.476562 C 239.25 132.007812 238.957031 132.71875 238.949219 133.46875 C 238.949219 133.546875 238.980469 133.625 239.027344 133.691406 C 239.089844 133.753906 239.164062 133.789062 239.242188 133.792969 C 239.890625 133.902344 240.480469 133.429688 240.972656 132.996094 L 242.773438 131.359375 C 243.058594 131.117188 243.316406 130.84375 243.535156 130.535156 C 243.652344 130.355469 243.71875 130.152344 243.726562 129.9375 C 243.691406 129.496094 243.304688 129.175781 242.867188 129.210938 C 242.742188 129.222656 242.617188 129.265625 242.507812 129.335938 C 242.5625 128.988281 242.695312 128.671875 242.777344 128.328125 C 242.878906 127.992188 242.855469 127.636719 242.710938 127.320312 C 242.550781 126.996094 242.171875 126.851562 241.835938 126.988281 C 242.046875 126.574219 242.183594 126.125 242.230469 125.664062 C 242.273438 125.191406 242.050781 124.726562 241.648438 124.46875 C 241.542969 124.429688 241.441406 124.363281 241.355469 124.285156 C 241.195312 124.09375 241.324219 123.808594 241.390625 123.570312 C 241.609375 122.96875 241.300781 122.304688 240.703125 122.089844 C 240.539062 122.035156 240.371094 122.011719 240.199219 122.023438 C 239.171875 122.128906 238.3125 122.773438 237.558594 123.421875 Z M 237.5625 123.414062 "/>
<path style=" stroke:none;fill-rule:nonzero;fill:rgb(9.803922%,46.27451%,82.352942%);fill-opacity:1;" d="M 270.210938 138.359375 C 274.789062 134.316406 280.453125 137.382812 278.460938 143.152344 C 274.15625 155.644531 265.152344 184.261719 256.601562 184.261719 C 245.460938 184.261719 240.953125 164.503906 240.953125 164.503906 L 246.097656 154.085938 C 246.097656 154.085938 253.375 170.050781 257.039062 165.730469 C 260.707031 161.410156 262.871094 145.042969 269.992188 138.539062 L 270.203125 138.355469 Z M 270.210938 138.359375 "/>
<path style=" stroke:none;fill-rule:nonzero;fill:rgb(100%,66.666669%,44.313726%);fill-opacity:1;" d="M 244.421875 153.40625 C 244.355469 152.484375 244.339844 151.554688 244.375 150.625 C 244.351562 146.574219 243.15625 142.613281 240.929688 139.222656 C 240.695312 139.558594 240.59375 139.972656 240.648438 140.375 L 240.707031 150.941406 C 240.742188 151.816406 240.683594 152.695312 240.535156 153.558594 C 240.394531 154.1875 240.167969 154.789062 239.988281 155.40625 C 239.609375 156.695312 239.472656 158.046875 239.59375 159.382812 C 239.628906 160.105469 239.820312 160.804688 240.160156 161.441406 C 240.515625 162.085938 241.15625 162.511719 241.878906 162.605469 C 242.113281 162.605469 243.070312 160.613281 243.210938 160.34375 C 243.636719 159.546875 244.03125 158.746094 244.402344 157.9375 C 244.679688 157.324219 245.261719 156.421875 245.160156 155.734375 C 245.046875 154.960938 244.519531 154.253906 244.421875 153.402344 Z M 244.421875 153.40625 "/>
<path style=" stroke:none;fill-rule:nonzero;fill:rgb(100%,66.666669%,44.313726%);fill-opacity:1;" d="M 265.6875 119.808594 C 264.726562 120.886719 263.765625 121.972656 262.804688 123.058594 C 262.066406 123.984375 261.199219 124.792969 260.214844 125.449219 C 259.828125 125.675781 259.421875 125.851562 258.996094 125.976562 C 257.25 125.425781 256.363281 123.71875 257.707031 119.867188 C 258.125 118.675781 260.488281 118.230469 261.125 117.121094 L 260.992188 117.019531 C 261.449219 117.234375 261.9375 117.390625 262.429688 117.484375 C 263.460938 117.640625 266.011719 116.839844 266.320312 118.367188 C 266.4375 118.894531 266.058594 119.394531 265.679688 119.800781 Z M 265.6875 119.808594 "/>
<path style=" stroke:none;fill-rule:nonzero;fill:rgb(9.803922%,46.27451%,82.352942%);fill-opacity:1;" d="M 74.273438 44.179688 L 237.253906 44.179688 L 237.253906 232.933594 L 74.273438 232.933594 Z M 74.273438 44.179688 "/>
<path style=" stroke:none;fill-rule:nonzero;fill:url(#linear1);" d="M 74.273438 44.179688 L 237.253906 44.179688 L 237.253906 232.933594 L 74.273438 232.933594 Z M 74.273438 44.179688 "/>
<path style=" stroke:none;fill-rule:nonzero;fill:url(#linear2);" d="M 214.855469 53.296875 L 74.273438 65.898438 C 74.902344 65.898438 74.273438 48.390625 74.273438 44.171875 L 222.492188 44.171875 L 222.492188 45.652344 C 222.492188 49.871094 219.070312 53.296875 214.855469 53.296875 Z M 214.855469 53.296875 "/>
<path style=" stroke:none;fill-rule:nonzero;fill:rgb(9.803922%,46.27451%,82.352942%);fill-opacity:1;" d="M 74.273438 65.898438 L 237.253906 65.898438 L 237.253906 254.652344 L 74.273438 254.652344 Z M 74.273438 65.898438 "/>
<path style=" stroke:none;fill-rule:nonzero;fill:url(#linear3);" d="M 74.273438 65.898438 L 97.445312 65.898438 L 97.445312 254.652344 L 74.273438 254.652344 Z M 74.273438 65.898438 "/>
<path style=" stroke:none;fill-rule:nonzero;fill:rgb(100%,100%,100%);fill-opacity:1;" d="M 83.371094 101.179688 L 111.523438 101.179688 L 111.523438 129.328125 L 83.371094 129.328125 Z M 83.371094 101.179688 "/>
<path style=" stroke:none;fill-rule:nonzero;fill:rgb(100%,100%,100%);fill-opacity:1;" d="M 113.089844 101.179688 L 141.238281 101.179688 L 141.238281 129.328125 L 113.089844 129.328125 Z M 113.089844 101.179688 "/>
<path style=" stroke:none;fill-rule:nonzero;fill:rgb(100%,100%,100%);fill-opacity:1;" d="M 142.804688 101.179688 L 170.957031 101.179688 L 170.957031 129.328125 L 142.804688 129.328125 Z M 142.804688 101.179688 "/>
<path style=" stroke:none;fill-rule:nonzero;fill:rgb(100%,100%,100%);fill-opacity:1;" d="M 172.519531 101.179688 L 200.671875 101.179688 L 200.671875 129.328125 L 172.519531 129.328125 Z M 172.519531 101.179688 "/>
<path style=" stroke:none;fill-rule:nonzero;fill:rgb(100%,100%,100%);fill-opacity:1;" d="M 83.371094 130.566406 L 111.523438 130.566406 L 111.523438 158.71875 L 83.371094 158.71875 Z M 83.371094 130.566406 "/>
<path style=" stroke:none;fill-rule:nonzero;fill:rgb(100%,100%,100%);fill-opacity:1;" d="M 113.089844 130.566406 L 141.238281 130.566406 L 141.238281 158.71875 L 113.089844 158.71875 Z M 113.089844 130.566406 "/>
<path style=" stroke:none;fill-rule:nonzero;fill:rgb(100%,100%,100%);fill-opacity:1;" d="M 142.804688 130.566406 L 170.957031 130.566406 L 170.957031 158.71875 L 142.804688 158.71875 Z M 142.804688 130.566406 "/>
<path style=" stroke:none;fill-rule:nonzero;fill:rgb(100%,100%,100%);fill-opacity:1;" d="M 172.519531 130.566406 L 200.671875 130.566406 L 200.671875 158.71875 L 172.519531 158.71875 Z M 172.519531 130.566406 "/>
<path style=" stroke:none;fill-rule:nonzero;fill:rgb(100%,100%,100%);fill-opacity:1;" d="M 83.371094 159.953125 L 111.523438 159.953125 L 111.523438 188.105469 L 83.371094 188.105469 Z M 83.371094 159.953125 "/>
<path style=" stroke:none;fill-rule:nonzero;fill:rgb(100%,100%,100%);fill-opacity:1;" d="M 113.089844 159.953125 L 141.238281 159.953125 L 141.238281 188.105469 L 113.089844 188.105469 Z M 113.089844 159.953125 "/>
<path style=" stroke:none;fill-rule:nonzero;fill:rgb(100%,100%,100%);fill-opacity:1;" d="M 142.804688 159.953125 L 170.957031 159.953125 L 170.957031 188.105469 L 142.804688 188.105469 Z M 142.804688 159.953125 "/>
<path style=" stroke:none;fill-rule:nonzero;fill:rgb(100%,100%,100%);fill-opacity:1;" d="M 172.519531 159.953125 L 200.671875 159.953125 L 200.671875 188.105469 L 172.519531 188.105469 Z M 172.519531 159.953125 "/>
<path style=" stroke:none;fill-rule:nonzero;fill:rgb(100%,100%,100%);fill-opacity:1;" d="M 83.371094 189.34375 L 111.523438 189.34375 L 111.523438 217.492188 L 83.371094 217.492188 Z M 83.371094 189.34375 "/>
<path style=" stroke:none;fill-rule:nonzero;fill:rgb(100%,100%,100%);fill-opacity:1;" d="M 113.089844 189.34375 L 141.238281 189.34375 L 141.238281 217.492188 L 113.089844 217.492188 Z M 113.089844 189.34375 "/>
<path style=" stroke:none;fill-rule:nonzero;fill:rgb(100%,100%,100%);fill-opacity:1;" d="M 142.804688 189.34375 L 170.957031 189.34375 L 170.957031 217.492188 L 142.804688 217.492188 Z M 142.804688 189.34375 "/>
<path style=" stroke:none;fill-rule:nonzero;fill:rgb(100%,100%,100%);fill-opacity:1;" d="M 172.519531 189.34375 L 200.671875 189.34375 L 200.671875 217.492188 L 172.519531 217.492188 Z M 172.519531 189.34375 "/>
<path style=" stroke:none;fill-rule:nonzero;fill:rgb(100%,100%,100%);fill-opacity:1;" d="M 83.371094 218.734375 L 111.523438 218.734375 L 111.523438 246.886719 L 83.371094 246.886719 Z M 83.371094 218.734375 "/>
<path style=" stroke:none;fill-rule:nonzero;fill:rgb(100%,100%,100%);fill-opacity:1;" d="M 113.089844 218.734375 L 141.238281 218.734375 L 141.238281 246.886719 L 113.089844 246.886719 Z M 113.089844 218.734375 "/>
<path style=" stroke:none;fill-rule:nonzero;fill:rgb(100%,100%,100%);fill-opacity:1;" d="M 142.804688 218.734375 L 170.957031 218.734375 L 170.957031 246.886719 L 142.804688 246.886719 Z M 142.804688 218.734375 "/>
<path style=" stroke:none;fill-rule:nonzero;fill:rgb(100%,100%,100%);fill-opacity:1;" d="M 201.738281 101.179688 L 229.890625 101.179688 L 229.890625 129.328125 L 201.738281 129.328125 Z M 201.738281 101.179688 "/>
<path style=" stroke:none;fill-rule:nonzero;fill:rgb(100%,100%,100%);fill-opacity:1;" d="M 201.738281 71.789062 L 229.890625 71.789062 L 229.890625 99.941406 L 201.738281 99.941406 Z M 201.738281 71.789062 "/>
<path style=" stroke:none;fill-rule:nonzero;fill:rgb(100%,100%,100%);fill-opacity:1;" d="M 172.519531 71.789062 L 200.671875 71.789062 L 200.671875 99.941406 L 172.519531 99.941406 Z M 172.519531 71.789062 "/>
<path style=" stroke:none;fill-rule:nonzero;fill:rgb(100%,100%,100%);fill-opacity:1;" d="M 201.738281 130.566406 L 229.890625 130.566406 L 229.890625 158.71875 L 201.738281 158.71875 Z M 201.738281 130.566406 "/>
<path style=" stroke:none;fill-rule:nonzero;fill:rgb(100%,100%,100%);fill-opacity:1;" d="M 201.738281 159.953125 L 229.890625 159.953125 L 229.890625 188.105469 L 201.738281 188.105469 Z M 201.738281 159.953125 "/>
<path style=" stroke:none;fill-rule:nonzero;fill:rgb(100%,100%,100%);fill-opacity:1;" d="M 201.738281 189.34375 L 229.890625 189.34375 L 229.890625 217.492188 L 201.738281 217.492188 Z M 201.738281 189.34375 "/>
<path style=" stroke:none;fill-rule:nonzero;fill:rgb(9.803922%,46.27451%,82.352942%);fill-opacity:1;" d="M 86.898438 36.546875 L 86.898438 51.808594 C 86.898438 52.632812 87.941406 53.304688 89.230469 53.304688 C 90.523438 53.304688 91.566406 52.636719 91.566406 51.808594 L 91.566406 36.546875 C 91.566406 35.722656 90.523438 35.050781 89.230469 35.050781 C 87.949219 35.050781 86.898438 35.71875 86.898438 36.546875 Z M 86.898438 36.546875 "/>
<path style=" stroke:none;fill-rule:nonzero;fill:rgb(9.803922%,46.27451%,82.352942%);fill-opacity:1;" d="M 109.1875 36.546875 L 109.1875 51.808594 C 109.1875 52.632812 110.230469 53.304688 111.523438 53.304688 C 112.8125 53.304688 113.855469 52.636719 113.855469 51.808594 L 113.855469 36.546875 C 113.855469 35.722656 112.8125 35.050781 111.523438 35.050781 C 110.230469 35.050781 109.1875 35.71875 109.1875 36.546875 Z M 109.1875 36.546875 "/>
<path style=" stroke:none;fill-rule:nonzero;fill:rgb(9.803922%,46.27451%,82.352942%);fill-opacity:1;" d="M 131.476562 36.546875 L 131.476562 51.808594 C 131.476562 52.632812 132.523438 53.304688 133.8125 53.304688 C 135.101562 53.304688 136.144531 52.636719 136.144531 51.808594 L 136.144531 36.546875 C 136.144531 35.722656 135.101562 35.050781 133.8125 35.050781 C 132.523438 35.050781 131.476562 35.71875 131.476562 36.546875 Z M 131.476562 36.546875 "/>
<path style=" stroke:none;fill-rule:nonzero;fill:rgb(9.803922%,46.27451%,82.352942%);fill-opacity:1;" d="M 153.773438 36.546875 L 153.773438 51.808594 C 153.773438 52.632812 154.816406 53.304688 156.109375 53.304688 C 157.390625 53.304688 158.441406 52.636719 158.441406 51.808594 L 158.441406 36.546875 C 158.441406 35.722656 157.398438 35.050781 156.109375 35.050781 C 154.816406 35.050781 153.773438 35.71875 153.773438 36.546875 Z M 153.773438 36.546875 "/>
<path style=" stroke:none;fill-rule:nonzero;fill:rgb(9.803922%,46.27451%,82.352942%);fill-opacity:1;" d="M 176.058594 36.546875 L 176.058594 51.808594 C 176.058594 52.632812 177.101562 53.304688 178.390625 53.304688 C 179.675781 53.304688 180.726562 52.636719 180.726562 51.808594 L 180.726562 36.546875 C 180.726562 35.722656 179.683594 35.050781 178.390625 35.050781 C 177.101562 35.050781 176.058594 35.71875 176.058594 36.546875 Z M 176.058594 36.546875 "/>
<path style=" stroke:none;fill-rule:nonzero;fill:rgb(9.803922%,46.27451%,82.352942%);fill-opacity:1;" d="M 198.347656 36.546875 L 198.347656 51.808594 C 198.347656 52.632812 199.390625 53.304688 200.683594 53.304688 C 201.972656 53.304688 203.015625 52.636719 203.015625 51.808594 L 203.015625 36.546875 C 203.015625 35.722656 201.972656 35.050781 200.683594 35.050781 C 199.398438 35.050781 198.347656 35.71875 198.347656 36.546875 Z M 198.347656 36.546875 "/>
<path style=" stroke:none;fill-rule:nonzero;fill:rgb(9.803922%,46.27451%,82.352942%);fill-opacity:1;" d="M 220.15625 36.546875 L 220.15625 51.808594 C 220.15625 52.632812 221.203125 53.304688 222.492188 53.304688 C 223.78125 53.304688 224.824219 52.636719 224.824219 51.808594 L 224.824219 36.546875 C 224.824219 35.722656 223.78125 35.050781 222.492188 35.050781 C 221.207031 35.050781 220.15625 35.71875 220.15625 36.546875 Z M 220.15625 36.546875 "/>
<path style=" stroke:none;fill-rule:nonzero;fill:rgb(9.803922%,46.27451%,82.352942%);fill-opacity:1;" d="M 237.253906 44.179688 L 240.960938 44.179688 L 240.960938 254.652344 L 237.253906 254.652344 Z M 237.253906 44.179688 "/>
<path style=" stroke:none;fill-rule:nonzero;fill:url(#linear4);" d="M 237.257812 44.171875 L 240.964844 44.171875 L 240.964844 254.652344 L 237.257812 254.652344 Z M 237.257812 44.171875 "/>
<path style=" stroke:none;fill-rule:nonzero;fill:url(#linear5);" d="M 179.023438 75.917969 C 179.023438 77.152344 178.027344 78.160156 176.785156 78.160156 C 175.546875 78.160156 174.539062 77.164062 174.539062 75.925781 C 174.539062 74.6875 175.535156 73.679688 176.777344 73.679688 C 178.015625 73.679688 179.015625 74.683594 179.023438 75.917969 Z M 179.023438 75.917969 "/>
<path style=" stroke:none;fill-rule:nonzero;fill:url(#linear6);" d="M 179.023438 105.304688 C 179.023438 106.542969 178.027344 107.550781 176.785156 107.550781 C 175.542969 107.550781 174.539062 106.554688 174.539062 105.3125 C 174.539062 104.074219 175.535156 103.066406 176.777344 103.066406 C 178.015625 103.066406 179.015625 104.070312 179.023438 105.304688 Z M 179.023438 105.304688 "/>
<path style=" stroke:none;fill-rule:nonzero;fill:url(#linear7);" d="M 184.492188 105.304688 C 184.492188 106.542969 183.496094 107.550781 182.257812 107.550781 C 181.015625 107.550781 180.011719 106.554688 180.011719 105.3125 C 180.011719 104.074219 181.007812 103.066406 182.25 103.066406 C 183.484375 103.066406 184.488281 104.070312 184.492188 105.304688 Z M 184.492188 105.304688 "/>
<path style=" stroke:none;fill-rule:nonzero;fill:url(#linear8);" d="M 189.996094 105.304688 C 189.996094 106.542969 189 107.550781 187.757812 107.550781 C 186.515625 107.550781 185.515625 106.554688 185.515625 105.3125 C 185.515625 104.074219 186.511719 103.066406 187.753906 103.066406 C 188.988281 103.066406 189.988281 104.070312 189.996094 105.304688 Z M 189.996094 105.304688 "/>
<path style=" stroke:none;fill-rule:nonzero;fill:url(#linear9);" d="M 179.023438 164.507812 C 179.023438 165.742188 178.019531 166.746094 176.785156 166.746094 C 175.546875 166.746094 174.546875 165.742188 174.546875 164.507812 C 174.546875 163.273438 175.546875 162.269531 176.785156 162.269531 C 178.019531 162.269531 179.023438 163.273438 179.023438 164.507812 Z M 179.023438 164.507812 "/>
<path style=" stroke:none;fill-rule:nonzero;fill:url(#linear10);" d="M 184.492188 164.507812 C 184.492188 165.742188 183.492188 166.746094 182.257812 166.746094 C 181.019531 166.746094 180.019531 165.742188 180.019531 164.507812 C 180.019531 163.273438 181.019531 162.269531 182.257812 162.269531 C 183.492188 162.269531 184.492188 163.273438 184.492188 164.507812 Z M 184.492188 164.507812 "/>
<path style=" stroke:none;fill-rule:nonzero;fill:url(#linear11);" d="M 189.996094 164.507812 C 189.996094 165.742188 188.992188 166.746094 187.757812 166.746094 C 186.523438 166.746094 185.519531 165.742188 185.519531 164.507812 C 185.519531 163.273438 186.523438 162.269531 187.757812 162.269531 C 188.992188 162.269531 189.996094 163.273438 189.996094 164.507812 Z M 189.996094 164.507812 "/>
<path style=" stroke:none;fill-rule:nonzero;fill:rgb(9.803922%,46.27451%,82.352942%);fill-opacity:1;" d="M 149.988281 203.140625 L 153.996094 209.375 C 154.367188 209.953125 155.140625 210.121094 155.71875 209.746094 C 155.8125 209.683594 155.902344 209.605469 155.980469 209.515625 L 167.027344 196.78125 C 167.476562 196.265625 167.425781 195.480469 166.90625 195.03125 C 166.679688 194.832031 166.390625 194.722656 166.09375 194.722656 L 166.003906 194.722656 C 165.636719 194.722656 165.28125 194.886719 165.046875 195.167969 L 156.40625 205.511719 C 155.96875 206.035156 155.191406 206.113281 154.667969 205.675781 C 154.570312 205.597656 154.488281 205.5 154.421875 205.398438 L 152.070312 201.816406 C 151.800781 201.414062 151.324219 201.199219 150.847656 201.269531 C 150.175781 201.382812 149.71875 202.027344 149.832031 202.699219 C 149.855469 202.847656 149.910156 202.992188 149.988281 203.125 Z M 149.988281 203.140625 "/>
<path style=" stroke:none;fill-rule:nonzero;fill:rgb(9.803922%,46.27451%,82.352942%);fill-opacity:1;" d="M 101.695312 234.652344 L 106.746094 239.621094 C 107.238281 240.109375 107.242188 240.90625 106.757812 241.398438 C 106.523438 241.636719 106.199219 241.769531 105.863281 241.769531 L 105.648438 241.769531 C 105.3125 241.769531 104.992188 241.636719 104.753906 241.402344 L 99.839844 236.484375 C 99.347656 235.992188 98.554688 235.992188 98.0625 236.484375 L 93.148438 241.402344 C 92.914062 241.636719 92.597656 241.769531 92.261719 241.769531 L 92.046875 241.769531 C 91.351562 241.769531 90.785156 241.207031 90.785156 240.515625 C 90.785156 240.179688 90.917969 239.855469 91.15625 239.621094 L 96.210938 234.652344 C 96.695312 234.167969 96.695312 233.375 96.210938 232.890625 L 91.109375 227.789062 C 90.617188 227.296875 90.625 226.5 91.109375 226.015625 C 91.34375 225.78125 91.660156 225.648438 91.992188 225.648438 C 92.320312 225.648438 92.632812 225.773438 92.875 226.007812 L 98.046875 231.109375 C 98.539062 231.589844 99.316406 231.589844 99.808594 231.109375 L 104.980469 226.007812 C 105.214844 225.78125 105.535156 225.648438 105.863281 225.648438 C 106.558594 225.648438 107.125 226.210938 107.125 226.902344 C 107.125 227.230469 106.992188 227.554688 106.757812 227.789062 L 101.65625 232.890625 C 101.179688 233.382812 101.191406 234.175781 101.683594 234.652344 L 101.699219 234.652344 Z M 101.695312 234.652344 "/>
<path style=" stroke:none;fill-rule:nonzero;fill:rgb(9.803922%,46.27451%,82.352942%);fill-opacity:1;" d="M 56.664062 219.03125 L 57.898438 219.03125 L 58.511719 246.90625 L 57.898438 242.308594 L 56.664062 242.308594 Z M 56.664062 219.03125 "/>
<path style=" stroke:none;fill-rule:nonzero;fill:rgb(9.803922%,46.27451%,82.352942%);fill-opacity:1;" d="M 57.898438 229.1875 L 57.898438 229.21875 C 57.898438 230.089844 57.589844 230.957031 57.257812 232.003906 C 55.085938 232.632812 53.640625 233.136719 51.503906 230.933594 C 49.375 228.730469 47.171875 224.464844 47.867188 222.316406 C 50.039062 221.6875 54.277344 223.980469 56.410156 226.183594 C 57.515625 227.308594 57.894531 228.253906 57.898438 229.1875 Z M 57.898438 229.1875 "/>
<path style=" stroke:none;fill-rule:nonzero;fill:rgb(9.803922%,46.27451%,82.352942%);fill-opacity:1;" d="M 64.261719 230.953125 C 62.304688 232.847656 60.925781 232.597656 59.128906 232.019531 L 59.128906 242.308594 L 57.894531 242.308594 L 57.894531 219.023438 L 59.128906 219.023438 L 59.128906 226.429688 C 59.242188 226.300781 59.371094 226.175781 59.503906 226.03125 C 61.703125 223.902344 65.96875 221.695312 68.117188 222.394531 C 68.746094 224.578125 66.457031 228.816406 64.253906 230.953125 Z M 64.261719 230.953125 "/>
<path style=" stroke:none;fill-rule:nonzero;fill:url(#linear12);" d="M 64.261719 230.953125 C 62.304688 232.847656 60.925781 232.597656 59.128906 232.019531 L 59.128906 242.308594 L 57.894531 242.308594 L 57.894531 219.023438 L 59.128906 219.023438 L 59.128906 226.429688 C 59.242188 226.300781 59.371094 226.175781 59.503906 226.03125 C 61.703125 223.902344 65.96875 221.695312 68.117188 222.394531 C 68.746094 224.578125 66.457031 228.816406 64.253906 230.953125 Z M 64.261719 230.953125 "/>
<path style=" stroke:none;fill-rule:nonzero;fill:rgb(9.803922%,46.27451%,82.352942%);fill-opacity:1;" d="M 57.898438 213.40625 L 52.390625 213.40625 C 52.390625 217.320312 54.851562 220.488281 57.894531 220.488281 L 59.191406 217.015625 L 57.894531 213.40625 Z M 57.898438 213.40625 "/>
<path style=" stroke:none;fill-rule:nonzero;fill:rgb(9.803922%,46.27451%,82.352942%);fill-opacity:1;" d="M 57.996094 214.765625 L 57.898438 214.828125 L 57.898438 214.433594 Z M 57.996094 214.765625 "/>
<path style=" stroke:none;fill-rule:nonzero;fill:rgb(9.803922%,46.27451%,82.352942%);fill-opacity:1;" d="M 47.472656 205.429688 C 46.777344 207.582031 48.976562 211.847656 51.113281 214.042969 C 53.25 216.246094 54.695312 215.746094 56.863281 215.113281 C 57.558594 212.957031 58.152344 211.492188 56.015625 209.285156 C 53.878906 207.085938 49.644531 204.792969 47.472656 205.421875 Z M 47.472656 205.429688 "/>
<path style=" stroke:none;fill-rule:nonzero;fill:rgb(9.803922%,46.27451%,82.352942%);fill-opacity:1;" d="M 63.863281 214.074219 C 63.679688 214.253906 63.503906 214.410156 63.324219 214.554688 C 62.898438 217.921875 60.625 220.488281 57.894531 220.488281 L 57.894531 214.828125 L 57.988281 214.765625 L 57.894531 214.429688 L 57.894531 214.824219 C 57.769531 214.914062 57.636719 214.992188 57.496094 215.050781 C 55.542969 213.917969 53.957031 210.3125 54.085938 207.238281 C 54.210938 204.167969 55.757812 199.636719 57.792969 198.648438 C 59.746094 199.78125 61.027344 204.421875 60.910156 207.492188 L 60.910156 207.71875 C 63.167969 206.171875 66.085938 204.984375 67.746094 205.523438 C 68.363281 207.703125 66.066406 211.933594 63.863281 214.066406 Z M 63.863281 214.074219 "/>
<path style=" stroke:none;fill-rule:nonzero;fill:url(#linear13);" d="M 63.863281 214.074219 C 63.679688 214.253906 63.503906 214.410156 63.324219 214.554688 C 62.898438 217.921875 60.625 220.488281 57.894531 220.488281 L 57.894531 214.828125 L 57.988281 214.765625 L 57.894531 214.429688 L 57.894531 214.824219 C 57.769531 214.914062 57.636719 214.992188 57.496094 215.050781 C 55.542969 213.917969 53.957031 210.3125 54.085938 207.238281 C 54.210938 204.167969 55.757812 199.636719 57.792969 198.648438 C 59.746094 199.78125 61.027344 204.421875 60.910156 207.492188 L 60.910156 207.71875 C 63.167969 206.171875 66.085938 204.984375 67.746094 205.523438 C 68.363281 207.703125 66.066406 211.933594 63.863281 214.066406 Z M 63.863281 214.074219 "/>
<path style=" stroke:none;fill-rule:nonzero;fill:rgb(9.803922%,46.27451%,82.352942%);fill-opacity:1;" d="M 57.996094 214.765625 L 57.898438 214.828125 L 57.898438 214.433594 Z M 57.996094 214.765625 "/>
<path style=" stroke:none;fill-rule:nonzero;fill:rgb(9.803922%,46.27451%,82.352942%);fill-opacity:1;" d="M 47.015625 238.757812 L 48.953125 254.453125 L 57.9375 254.453125 L 61.609375 245.527344 L 57.9375 238.320312 Z M 47.015625 238.757812 "/>
<path style=" stroke:none;fill-rule:nonzero;fill:rgb(9.803922%,46.27451%,82.352942%);fill-opacity:1;" d="M 68.863281 238.757812 L 66.925781 254.453125 L 57.9375 254.453125 L 57.9375 238.320312 Z M 68.863281 238.757812 "/>
<path style=" stroke:none;fill-rule:nonzero;fill:rgb(9.803922%,46.27451%,82.352942%);fill-opacity:1;" d="M 61.9375 238.429688 L 61.835938 238.476562 L 58.789062 239.988281 L 57.953125 240.40625 L 45.820312 240.40625 C 45.058594 240.40625 44.441406 239.789062 44.441406 239.027344 L 44.441406 235.519531 C 44.4375 234.835938 44.980469 234.277344 45.664062 234.269531 L 45.78125 234.269531 L 57.953125 234.292969 L 61.933594 238.429688 Z M 61.9375 238.429688 "/>
<path style=" stroke:none;fill-rule:nonzero;fill:url(#linear14);" d="M 61.9375 238.429688 L 61.835938 238.476562 L 58.789062 239.988281 L 57.953125 240.40625 L 45.820312 240.40625 C 45.058594 240.40625 44.441406 239.789062 44.441406 239.027344 L 44.441406 235.519531 C 44.4375 234.835938 44.980469 234.277344 45.664062 234.269531 L 45.78125 234.269531 L 57.953125 234.292969 L 61.933594 238.429688 Z M 61.9375 238.429688 "/>
<path style=" stroke:none;fill-rule:nonzero;fill:rgb(9.803922%,46.27451%,82.352942%);fill-opacity:1;" d="M 70.050781 240.40625 L 57.9375 240.40625 L 57.9375 234.136719 L 70.050781 234.136719 C 70.8125 234.136719 71.429688 234.757812 71.429688 235.519531 L 71.429688 239.027344 C 71.429688 239.789062 70.8125 240.40625 70.050781 240.40625 Z M 70.050781 240.40625 "/>
<path style=" stroke:none;fill-rule:nonzero;fill:url(#linear15);" d="M 57.941406 240.40625 L 57.941406 254.453125 L 48.953125 254.453125 L 47.21875 240.40625 Z M 57.941406 240.40625 "/>
<path style=" stroke:none;fill-rule:nonzero;fill:url(#linear16);" d="M 68.65625 240.40625 L 66.925781 254.453125 L 57.941406 254.453125 L 57.941406 240.40625 Z M 68.65625 240.40625 "/>
<path style=" stroke:none;fill-rule:nonzero;fill:url(#linear17);" d="M 71.429688 235.679688 L 71.429688 239.191406 C 71.429688 239.953125 70.8125 240.570312 70.050781 240.570312 L 57.960938 240.570312 L 57.960938 234.300781 L 70.066406 234.300781 C 70.824219 234.3125 71.429688 234.925781 71.429688 235.679688 Z M 71.429688 235.679688 "/>
</g>
</svg>
