<?xml version="1.0" encoding="UTF-8"?>
<svg xmlns="http://www.w3.org/2000/svg" xmlns:xlink="http://www.w3.org/1999/xlink" width="300px" height="300px" viewBox="0 0 300 300" version="1.1">
<defs>
<filter id="alpha" filterUnits="objectBoundingBox" x="0%" y="0%" width="100%" height="100%">
  <feColorMatrix type="matrix" in="SourceGraphic" values="0 0 0 0 1 0 0 0 0 1 0 0 0 0 1 0 0 0 1 0"/>
</filter>
<mask id="mask0">
  <g filter="url(#alpha)">
<rect x="0" y="0" width="300" height="300" style="fill:rgb(0%,0%,0%);fill-opacity:0.180392;stroke:none;"/>
  </g>
</mask>
<clipPath id="clip1">
  <rect x="0" y="0" width="300" height="300"/>
</clipPath>
<g id="surface5" clip-path="url(#clip1)">
<path style=" stroke:none;fill-rule:nonzero;fill:rgb(29.803923%,68.627453%,31.37255%);fill-opacity:1;" d="M 116.058594 69.605469 C 97.445312 80.898438 73.96875 83.539062 57.367188 97.621094 C 51.503906 102.59375 46.777344 108.808594 42.964844 115.480469 C 30.582031 137.191406 28.039062 164.28125 36.179688 187.921875 C 44.320312 211.554688 63.011719 231.328125 86.148438 240.796875 C 97.210938 245.328125 109.074219 247.554688 120.929688 249.113281 C 142.789062 251.980469 164.875 252.648438 186.863281 251.101562 C 200.765625 250.121094 215.441406 247.90625 226.132812 238.980469 C 233.261719 233.023438 237.90625 224.621094 241.5 216.054688 C 251.207031 192.761719 254.207031 167.21875 250.164062 142.308594 C 247.691406 127.242188 242.578125 112.492188 234.15625 99.769531 C 219.984375 78.34375 197.683594 64.285156 174.828125 53.59375 C 165.859375 49.414062 154.390625 42.121094 144.382812 46.34375 C 133.867188 50.789062 126.085938 63.539062 116.058594 69.613281 Z M 116.058594 69.605469 "/>
</g>
<linearGradient id="linear0" gradientUnits="userSpaceOnUse" x1="4.51" y1="382.779999" x2="-315.059998" y2="125.790001" gradientTransform="matrix(0.6,0,0,-0.6,205.097992,319.631982)">
<stop offset="0" style="stop-color:rgb(0%,0%,0%);stop-opacity:0;"/>
<stop offset="0.98" style="stop-color:rgb(0%,0%,0%);stop-opacity:1;"/>
</linearGradient>
<mask id="mask1">
  <g filter="url(#alpha)">
<rect x="0" y="0" width="300" height="300" style="fill:rgb(0%,0%,0%);fill-opacity:0.341176;stroke:none;"/>
  </g>
</mask>
<clipPath id="clip2">
  <rect x="0" y="0" width="300" height="300"/>
</clipPath>
<g id="surface9" clip-path="url(#clip2)">
<path style=" stroke:none;fill-rule:nonzero;fill:rgb(100%,100%,100%);fill-opacity:1;" d="M 210.894531 49.429688 L 157.789062 49.429688 C 156.054688 49.429688 154.644531 48.023438 154.644531 46.285156 C 154.644531 44.542969 156.046875 43.140625 157.789062 43.140625 L 210.894531 43.140625 C 212.628906 43.140625 214.039062 44.542969 214.039062 46.285156 C 214.039062 48.023438 212.628906 49.429688 210.894531 49.429688 Z M 210.894531 49.429688 "/>
</g>
<mask id="mask2">
  <g filter="url(#alpha)">
<rect x="0" y="0" width="300" height="300" style="fill:rgb(0%,0%,0%);fill-opacity:0.341176;stroke:none;"/>
  </g>
</mask>
<clipPath id="clip3">
  <rect x="0" y="0" width="300" height="300"/>
</clipPath>
<g id="surface12" clip-path="url(#clip3)">
<path style=" stroke:none;fill-rule:nonzero;fill:rgb(100%,100%,100%);fill-opacity:1;" d="M 210.894531 81.484375 L 157.789062 81.484375 C 156.058594 81.484375 154.65625 80.09375 154.644531 78.367188 C 154.644531 76.632812 156.046875 75.222656 157.78125 75.222656 L 210.886719 75.222656 C 212.628906 75.222656 214.03125 76.632812 214.03125 78.367188 C 214.019531 80.09375 212.617188 81.484375 210.886719 81.484375 Z M 210.894531 81.484375 "/>
</g>
<mask id="mask3">
  <g filter="url(#alpha)">
<rect x="0" y="0" width="300" height="300" style="fill:rgb(0%,0%,0%);fill-opacity:0.341176;stroke:none;"/>
  </g>
</mask>
<clipPath id="clip4">
  <rect x="0" y="0" width="300" height="300"/>
</clipPath>
<g id="surface15" clip-path="url(#clip4)">
<path style=" stroke:none;fill-rule:nonzero;fill:rgb(100%,100%,100%);fill-opacity:1;" d="M 210.894531 113.550781 L 157.789062 113.550781 C 156.054688 113.550781 154.644531 112.144531 154.644531 110.40625 C 154.644531 108.671875 156.046875 107.261719 157.78125 107.261719 L 210.894531 107.261719 C 212.632812 107.261719 214.039062 108.671875 214.039062 110.40625 C 214.039062 112.140625 212.628906 113.550781 210.894531 113.550781 Z M 210.894531 113.550781 "/>
</g>
<mask id="mask4">
  <g filter="url(#alpha)">
<rect x="0" y="0" width="300" height="300" style="fill:rgb(0%,0%,0%);fill-opacity:0.341176;stroke:none;"/>
  </g>
</mask>
<clipPath id="clip5">
  <rect x="0" y="0" width="300" height="300"/>
</clipPath>
<g id="surface18" clip-path="url(#clip5)">
<path style=" stroke:none;fill-rule:nonzero;fill:rgb(100%,100%,100%);fill-opacity:1;" d="M 210.894531 145.613281 L 157.789062 145.613281 C 156.054688 145.613281 154.644531 144.203125 154.644531 142.46875 C 154.644531 140.734375 156.046875 139.324219 157.78125 139.324219 L 210.894531 139.324219 C 212.632812 139.324219 214.039062 140.734375 214.039062 142.46875 C 214.039062 144.203125 212.628906 145.613281 210.894531 145.613281 Z M 210.894531 145.613281 "/>
</g>
<mask id="mask5">
  <g filter="url(#alpha)">
<rect x="0" y="0" width="300" height="300" style="fill:rgb(0%,0%,0%);fill-opacity:0.341176;stroke:none;"/>
  </g>
</mask>
<clipPath id="clip6">
  <rect x="0" y="0" width="300" height="300"/>
</clipPath>
<g id="surface21" clip-path="url(#clip6)">
<path style=" stroke:none;fill-rule:nonzero;fill:rgb(100%,100%,100%);fill-opacity:1;" d="M 210.894531 177.671875 L 157.789062 177.671875 C 156.054688 177.671875 154.644531 176.261719 154.644531 174.527344 C 154.644531 172.792969 156.046875 171.382812 157.78125 171.382812 L 210.894531 171.382812 C 212.632812 171.382812 214.039062 172.792969 214.039062 174.527344 C 214.039062 176.261719 212.628906 177.671875 210.894531 177.671875 Z M 210.894531 177.671875 "/>
</g>
<mask id="mask6">
  <g filter="url(#alpha)">
<rect x="0" y="0" width="300" height="300" style="fill:rgb(0%,0%,0%);fill-opacity:0.341176;stroke:none;"/>
  </g>
</mask>
<clipPath id="clip7">
  <rect x="0" y="0" width="300" height="300"/>
</clipPath>
<g id="surface24" clip-path="url(#clip7)">
<path style=" stroke:none;fill-rule:nonzero;fill:rgb(100%,100%,100%);fill-opacity:1;" d="M 210.894531 209.730469 L 157.789062 209.730469 C 156.054688 209.730469 154.644531 208.324219 154.644531 206.585938 C 154.644531 204.847656 156.046875 203.4375 157.789062 203.4375 L 210.894531 203.4375 C 212.628906 203.4375 214.039062 204.847656 214.039062 206.578125 C 214.039062 208.320312 212.628906 209.722656 210.894531 209.722656 Z M 210.894531 209.730469 "/>
</g>
<mask id="mask7">
  <g filter="url(#alpha)">
<rect x="0" y="0" width="300" height="300" style="fill:rgb(0%,0%,0%);fill-opacity:0.341176;stroke:none;"/>
  </g>
</mask>
<clipPath id="clip8">
  <rect x="0" y="0" width="300" height="300"/>
</clipPath>
<g id="surface27" clip-path="url(#clip8)">
<path style=" stroke:none;fill-rule:nonzero;fill:rgb(100%,100%,100%);fill-opacity:1;" d="M 229.722656 34.949219 L 247.710938 34.949219 C 249.066406 34.949219 250.164062 36.046875 250.164062 37.402344 L 250.164062 52.519531 C 250.164062 53.875 249.066406 54.972656 247.710938 54.972656 L 229.722656 54.972656 C 228.367188 54.972656 227.269531 53.875 227.269531 52.519531 L 227.269531 37.402344 C 227.269531 36.046875 228.367188 34.949219 229.722656 34.949219 Z M 229.722656 34.949219 "/>
</g>
<mask id="mask8">
  <g filter="url(#alpha)">
<rect x="0" y="0" width="300" height="300" style="fill:rgb(0%,0%,0%);fill-opacity:0.341176;stroke:none;"/>
  </g>
</mask>
<clipPath id="clip9">
  <rect x="0" y="0" width="300" height="300"/>
</clipPath>
<g id="surface30" clip-path="url(#clip9)">
<path style=" stroke:none;fill-rule:nonzero;fill:rgb(100%,100%,100%);fill-opacity:1;" d="M 229.722656 69.757812 L 247.710938 69.757812 C 249.066406 69.757812 250.164062 70.855469 250.164062 72.210938 L 250.164062 87.324219 C 250.164062 88.679688 249.066406 89.777344 247.710938 89.777344 L 229.722656 89.777344 C 228.367188 89.777344 227.269531 88.679688 227.269531 87.324219 L 227.269531 72.210938 C 227.269531 70.855469 228.367188 69.757812 229.722656 69.757812 Z M 229.722656 69.757812 "/>
</g>
<mask id="mask9">
  <g filter="url(#alpha)">
<rect x="0" y="0" width="300" height="300" style="fill:rgb(0%,0%,0%);fill-opacity:0.341176;stroke:none;"/>
  </g>
</mask>
<clipPath id="clip10">
  <rect x="0" y="0" width="300" height="300"/>
</clipPath>
<g id="surface33" clip-path="url(#clip10)">
<path style=" stroke:none;fill-rule:nonzero;fill:rgb(100%,100%,100%);fill-opacity:1;" d="M 229.722656 101.328125 L 247.710938 101.328125 C 249.066406 101.328125 250.164062 102.425781 250.164062 103.78125 L 250.164062 118.894531 C 250.164062 120.25 249.066406 121.351562 247.710938 121.351562 L 229.722656 121.351562 C 228.367188 121.351562 227.269531 120.25 227.269531 118.894531 L 227.269531 103.78125 C 227.269531 102.425781 228.367188 101.328125 229.722656 101.328125 Z M 229.722656 101.328125 "/>
</g>
<mask id="mask10">
  <g filter="url(#alpha)">
<rect x="0" y="0" width="300" height="300" style="fill:rgb(0%,0%,0%);fill-opacity:0.341176;stroke:none;"/>
  </g>
</mask>
<clipPath id="clip11">
  <rect x="0" y="0" width="300" height="300"/>
</clipPath>
<g id="surface36" clip-path="url(#clip11)">
<path style=" stroke:none;fill-rule:nonzero;fill:rgb(100%,100%,100%);fill-opacity:1;" d="M 229.722656 163.804688 L 247.710938 163.804688 C 249.066406 163.804688 250.164062 164.90625 250.164062 166.261719 L 250.164062 181.375 C 250.164062 182.730469 249.066406 183.828125 247.710938 183.828125 L 229.722656 183.828125 C 228.367188 183.828125 227.269531 182.730469 227.269531 181.375 L 227.269531 166.261719 C 227.269531 164.90625 228.367188 163.804688 229.722656 163.804688 Z M 229.722656 163.804688 "/>
</g>
<mask id="mask11">
  <g filter="url(#alpha)">
<rect x="0" y="0" width="300" height="300" style="fill:rgb(0%,0%,0%);fill-opacity:0.341176;stroke:none;"/>
  </g>
</mask>
<clipPath id="clip12">
  <rect x="0" y="0" width="300" height="300"/>
</clipPath>
<g id="surface39" clip-path="url(#clip12)">
<path style=" stroke:none;fill-rule:nonzero;fill:rgb(100%,100%,100%);fill-opacity:1;" d="M 229.722656 132.449219 L 247.710938 132.449219 C 249.066406 132.449219 250.164062 133.546875 250.164062 134.902344 L 250.164062 150.019531 C 250.164062 151.375 249.066406 152.472656 247.710938 152.472656 L 229.722656 152.472656 C 228.367188 152.472656 227.269531 151.375 227.269531 150.019531 L 227.269531 134.902344 C 227.269531 133.546875 228.367188 132.449219 229.722656 132.449219 Z M 229.722656 132.449219 "/>
</g>
<mask id="mask12">
  <g filter="url(#alpha)">
<rect x="0" y="0" width="300" height="300" style="fill:rgb(0%,0%,0%);fill-opacity:0.341176;stroke:none;"/>
  </g>
</mask>
<clipPath id="clip13">
  <rect x="0" y="0" width="300" height="300"/>
</clipPath>
<g id="surface42" clip-path="url(#clip13)">
<path style=" stroke:none;fill-rule:nonzero;fill:rgb(100%,100%,100%);fill-opacity:1;" d="M 229.722656 196.570312 L 247.710938 196.570312 C 249.066406 196.570312 250.164062 197.671875 250.164062 199.027344 L 250.164062 214.140625 C 250.164062 215.496094 249.066406 216.59375 247.710938 216.59375 L 229.722656 216.59375 C 228.367188 216.59375 227.269531 215.496094 227.269531 214.140625 L 227.269531 199.027344 C 227.269531 197.671875 228.367188 196.570312 229.722656 196.570312 Z M 229.722656 196.570312 "/>
</g>
<linearGradient id="linear1" gradientUnits="userSpaceOnUse" x1="63.549999" y1="553.960022" x2="16.16" y2="-341.559998" gradientTransform="matrix(0.6,0,0,-0.6,205.097992,319.631982)">
<stop offset="0" style="stop-color:rgb(0%,0%,0%);stop-opacity:0;"/>
<stop offset="0.98" style="stop-color:rgb(0%,0%,0%);stop-opacity:1;"/>
</linearGradient>
<linearGradient id="linear2" gradientUnits="userSpaceOnUse" x1="66.550003" y1="553.799988" x2="19.16" y2="-341.720001" gradientTransform="matrix(0.6,0,0,-0.6,205.097992,319.631982)">
<stop offset="0" style="stop-color:rgb(0%,0%,0%);stop-opacity:0;"/>
<stop offset="0.98" style="stop-color:rgb(0%,0%,0%);stop-opacity:1;"/>
</linearGradient>
<linearGradient id="linear3" gradientUnits="userSpaceOnUse" x1="72.269997" y1="553.5" x2="24.889999" y2="-342.019989" gradientTransform="matrix(0.6,0,0,-0.6,205.097992,319.631982)">
<stop offset="0" style="stop-color:rgb(0%,0%,0%);stop-opacity:0;"/>
<stop offset="0.98" style="stop-color:rgb(0%,0%,0%);stop-opacity:1;"/>
</linearGradient>
<linearGradient id="linear4" gradientUnits="userSpaceOnUse" x1="75.050003" y1="553.349976" x2="27.66" y2="-342.170013" gradientTransform="matrix(0.6,0,0,-0.6,205.097992,319.631982)">
<stop offset="0" style="stop-color:rgb(0%,0%,0%);stop-opacity:0;"/>
<stop offset="0.98" style="stop-color:rgb(0%,0%,0%);stop-opacity:1;"/>
</linearGradient>
<linearGradient id="linear5" gradientUnits="userSpaceOnUse" x1="77.769997" y1="553.210022" x2="30.370001" y2="-342.309998" gradientTransform="matrix(0.6,0,0,-0.6,205.097992,319.631982)">
<stop offset="0" style="stop-color:rgb(0%,0%,0%);stop-opacity:0;"/>
<stop offset="0.98" style="stop-color:rgb(0%,0%,0%);stop-opacity:1;"/>
</linearGradient>
<linearGradient id="linear6" gradientUnits="userSpaceOnUse" x1="-220.669998" y1="333.690002" x2="-146.960007" y2="305.880005" gradientTransform="matrix(0.6,0,0,-0.6,205.097992,319.631982)">
<stop offset="0" style="stop-color:rgb(0%,0%,0%);stop-opacity:0;"/>
<stop offset="0.98" style="stop-color:rgb(0%,0%,0%);stop-opacity:1;"/>
</linearGradient>
<linearGradient id="linear7" gradientUnits="userSpaceOnUse" x1="-27.59" y1="400.26001" x2="-81.870003" y2="298.190002" gradientTransform="matrix(0.6,0,0,-0.6,205.097992,319.631982)">
<stop offset="0" style="stop-color:rgb(0%,0%,0%);stop-opacity:0;"/>
<stop offset="0.98" style="stop-color:rgb(0%,0%,0%);stop-opacity:1;"/>
</linearGradient>
<linearGradient id="linear8" gradientUnits="userSpaceOnUse" x1="-153.339996" y1="318.600006" x2="-473.519989" y2="365.390015" gradientTransform="matrix(0.6,0,0,-0.6,205.097992,319.631982)">
<stop offset="0" style="stop-color:rgb(0%,0%,0%);stop-opacity:0;"/>
<stop offset="0.98" style="stop-color:rgb(0%,0%,0%);stop-opacity:1;"/>
</linearGradient>
<linearGradient id="linear9" gradientUnits="userSpaceOnUse" x1="-116.550003" y1="342.230011" x2="-131.130005" y2="234.75" gradientTransform="matrix(0.6,0,0,-0.6,205.097992,319.631982)">
<stop offset="0" style="stop-color:rgb(0%,0%,0%);stop-opacity:0;"/>
<stop offset="0.98" style="stop-color:rgb(0%,0%,0%);stop-opacity:1;"/>
</linearGradient>
</defs>
<g id="surface1">
<use xlink:href="#surface5" mask="url(#mask0)"/>
<path style=" stroke:none;fill-rule:nonzero;fill:rgb(29.803923%,68.627453%,31.37255%);fill-opacity:1;" d="M 156.972656 245.257812 L 150.023438 245.257812 C 145.078125 245.257812 141.070312 241.253906 141.054688 236.316406 L 141.054688 33.523438 C 141.054688 28.570312 145.066406 24.558594 150.023438 24.550781 L 156.972656 24.550781 C 152.023438 24.550781 148.003906 28.566406 148.003906 33.523438 L 148.003906 236.316406 C 148.015625 241.261719 152.027344 245.261719 156.972656 245.257812 Z M 156.972656 245.257812 "/>
<path style=" stroke:none;fill-rule:nonzero;fill:url(#linear0);" d="M 156.972656 245.257812 L 150.023438 245.257812 C 145.078125 245.257812 141.070312 241.253906 141.054688 236.316406 L 141.054688 33.523438 C 141.054688 28.570312 145.066406 24.558594 150.023438 24.550781 L 156.972656 24.550781 C 152.023438 24.550781 148.003906 28.566406 148.003906 33.523438 L 148.003906 236.316406 C 148.015625 241.261719 152.027344 245.261719 156.972656 245.257812 Z M 156.972656 245.257812 "/>
<path style=" stroke:none;fill-rule:nonzero;fill:rgb(29.803923%,68.627453%,31.37255%);fill-opacity:1;" d="M 156.964844 24.558594 L 262.289062 24.558594 C 267.242188 24.558594 271.261719 28.574219 271.261719 33.527344 L 271.261719 236.292969 C 271.261719 241.246094 267.242188 245.261719 262.289062 245.261719 L 156.964844 245.261719 C 152.011719 245.261719 147.996094 241.246094 147.996094 236.292969 L 147.996094 33.527344 C 147.996094 28.574219 152.011719 24.558594 156.964844 24.558594 Z M 156.964844 24.558594 "/>
<use xlink:href="#surface9" mask="url(#mask1)"/>
<use xlink:href="#surface12" mask="url(#mask2)"/>
<use xlink:href="#surface15" mask="url(#mask3)"/>
<use xlink:href="#surface18" mask="url(#mask4)"/>
<use xlink:href="#surface21" mask="url(#mask5)"/>
<use xlink:href="#surface24" mask="url(#mask6)"/>
<use xlink:href="#surface27" mask="url(#mask7)"/>
<use xlink:href="#surface30" mask="url(#mask8)"/>
<use xlink:href="#surface33" mask="url(#mask9)"/>
<use xlink:href="#surface36" mask="url(#mask10)"/>
<use xlink:href="#surface39" mask="url(#mask11)"/>
<use xlink:href="#surface42" mask="url(#mask12)"/>
<path style=" stroke:none;fill-rule:nonzero;fill:rgb(29.803923%,68.627453%,31.37255%);fill-opacity:1;" d="M 228.871094 42.042969 L 232.984375 48.949219 C 234.28125 51.109375 236.507812 51.539062 238.121094 49.992188 L 252.054688 36.582031 C 252.054688 36.582031 253.351562 34.726562 251.96875 33.300781 C 250.597656 31.867188 249.457031 33.515625 249.457031 33.515625 L 237.113281 45.378906 C 236.335938 46.09375 235.265625 45.859375 234.660156 44.832031 L 231.378906 39.277344 C 230.761719 38.238281 229.621094 38.140625 228.941406 39.101562 C 228.378906 39.996094 228.347656 41.128906 228.863281 42.046875 Z M 228.871094 42.042969 "/>
<path style=" stroke:none;fill-rule:nonzero;fill:rgb(29.803923%,68.627453%,31.37255%);fill-opacity:1;" d="M 228.871094 76.210938 L 232.984375 83.117188 C 234.28125 85.253906 236.507812 85.710938 238.121094 84.160156 L 252.054688 70.753906 C 252.054688 70.753906 253.351562 68.898438 251.96875 67.46875 C 250.597656 66.035156 249.457031 67.6875 249.457031 67.6875 L 237.113281 79.546875 C 236.335938 80.261719 235.265625 80.027344 234.660156 79.003906 L 231.378906 73.445312 C 230.753906 72.394531 229.621094 72.300781 228.941406 73.242188 C 228.367188 74.140625 228.335938 75.289062 228.863281 76.21875 Z M 228.871094 76.210938 "/>
<path style=" stroke:none;fill-rule:nonzero;fill:rgb(29.803923%,68.627453%,31.37255%);fill-opacity:1;" d="M 228.871094 141.3125 L 232.984375 148.21875 C 234.28125 150.355469 236.507812 150.808594 238.121094 149.261719 L 252.054688 135.847656 C 252.054688 135.847656 253.351562 133.992188 251.96875 132.5625 C 250.597656 131.128906 249.457031 132.78125 249.457031 132.78125 L 237.113281 144.640625 C 236.335938 145.355469 235.265625 145.117188 234.660156 144.097656 L 231.378906 138.539062 C 230.753906 137.488281 229.621094 137.394531 228.941406 138.335938 C 228.367188 139.234375 228.335938 140.382812 228.863281 141.3125 Z M 228.871094 141.3125 "/>
<path style=" stroke:none;fill-rule:nonzero;fill:rgb(29.803923%,68.627453%,31.37255%);fill-opacity:1;" d="M 228.871094 172.902344 L 232.984375 179.808594 C 234.28125 181.945312 236.507812 182.398438 238.121094 180.851562 L 252.054688 167.441406 C 252.054688 167.441406 253.351562 165.589844 251.96875 164.152344 C 250.597656 162.71875 249.457031 164.371094 249.457031 164.371094 L 237.113281 176.230469 C 236.335938 176.945312 235.265625 176.707031 234.660156 175.6875 L 231.378906 170.128906 C 230.753906 169.078125 229.621094 168.984375 228.941406 169.925781 C 228.367188 170.824219 228.335938 171.972656 228.863281 172.902344 Z M 228.871094 172.902344 "/>
<path style=" stroke:none;fill-rule:nonzero;fill:rgb(29.803923%,68.627453%,31.37255%);fill-opacity:1;" d="M 228.871094 203.671875 L 232.984375 210.574219 C 234.28125 212.734375 236.507812 213.167969 238.121094 211.625 L 252.054688 198.210938 C 252.054688 198.210938 253.351562 196.355469 251.96875 194.929688 C 250.589844 193.5 249.457031 195.144531 249.457031 195.144531 L 237.113281 207.007812 C 236.335938 207.71875 235.265625 207.484375 234.660156 206.460938 L 231.378906 200.933594 C 230.753906 199.882812 229.621094 199.789062 228.941406 200.730469 C 228.378906 201.625 228.347656 202.753906 228.863281 203.675781 Z M 228.871094 203.671875 "/>
<path style=" stroke:none;fill-rule:nonzero;fill:url(#linear1);" d="M 228.871094 42.042969 L 232.984375 48.949219 C 234.28125 51.109375 236.507812 51.539062 238.121094 49.992188 L 252.054688 36.582031 C 252.054688 36.582031 253.351562 34.726562 251.96875 33.300781 C 250.597656 31.867188 249.457031 33.515625 249.457031 33.515625 L 237.113281 45.378906 C 236.335938 46.09375 235.265625 45.859375 234.660156 44.832031 L 231.378906 39.277344 C 230.761719 38.238281 229.621094 38.140625 228.941406 39.101562 C 228.378906 39.996094 228.347656 41.128906 228.863281 42.046875 Z M 228.871094 42.042969 "/>
<path style=" stroke:none;fill-rule:nonzero;fill:url(#linear2);" d="M 228.871094 76.210938 L 232.984375 83.117188 C 234.28125 85.253906 236.507812 85.710938 238.121094 84.160156 L 252.054688 70.753906 C 252.054688 70.753906 253.351562 68.898438 251.96875 67.46875 C 250.597656 66.035156 249.457031 67.6875 249.457031 67.6875 L 237.113281 79.546875 C 236.335938 80.261719 235.265625 80.027344 234.660156 79.003906 L 231.378906 73.445312 C 230.753906 72.394531 229.621094 72.300781 228.941406 73.242188 C 228.367188 74.140625 228.335938 75.289062 228.863281 76.21875 Z M 228.871094 76.210938 "/>
<path style=" stroke:none;fill-rule:nonzero;fill:url(#linear3);" d="M 228.871094 141.3125 L 232.984375 148.21875 C 234.28125 150.355469 236.507812 150.808594 238.121094 149.261719 L 252.054688 135.847656 C 252.054688 135.847656 253.351562 133.992188 251.96875 132.5625 C 250.597656 131.128906 249.457031 132.78125 249.457031 132.78125 L 237.113281 144.640625 C 236.335938 145.355469 235.265625 145.117188 234.660156 144.097656 L 231.378906 138.539062 C 230.753906 137.488281 229.621094 137.394531 228.941406 138.335938 C 228.367188 139.234375 228.335938 140.382812 228.863281 141.3125 Z M 228.871094 141.3125 "/>
<path style=" stroke:none;fill-rule:nonzero;fill:url(#linear4);" d="M 228.871094 172.902344 L 232.984375 179.808594 C 234.28125 181.945312 236.507812 182.398438 238.121094 180.851562 L 252.054688 167.441406 C 252.054688 167.441406 253.351562 165.589844 251.96875 164.152344 C 250.597656 162.71875 249.457031 164.371094 249.457031 164.371094 L 237.113281 176.230469 C 236.335938 176.945312 235.265625 176.707031 234.660156 175.6875 L 231.378906 170.128906 C 230.753906 169.078125 229.621094 168.984375 228.941406 169.925781 C 228.367188 170.824219 228.335938 171.972656 228.863281 172.902344 Z M 228.871094 172.902344 "/>
<path style=" stroke:none;fill-rule:nonzero;fill:url(#linear5);" d="M 228.871094 203.671875 L 232.984375 210.574219 C 234.28125 212.734375 236.507812 213.167969 238.121094 211.625 L 252.054688 198.210938 C 252.054688 198.210938 253.351562 196.355469 251.96875 194.929688 C 250.589844 193.5 249.457031 195.144531 249.457031 195.144531 L 237.113281 207.007812 C 236.335938 207.71875 235.265625 207.484375 234.660156 206.460938 L 231.378906 200.933594 C 230.753906 199.882812 229.621094 199.789062 228.941406 200.730469 C 228.378906 201.625 228.347656 202.753906 228.863281 203.675781 Z M 228.871094 203.671875 "/>
<path style=" stroke:none;fill-rule:nonzero;fill:rgb(29.803923%,68.627453%,31.37255%);fill-opacity:1;" d="M 91.6875 94.375 C 91.6875 94.375 71.953125 119.992188 73.960938 131.488281 C 75.972656 142.984375 80.820312 154.699219 80.820312 154.699219 L 94.0625 98.164062 Z M 91.6875 94.375 "/>
<path style=" stroke:none;fill-rule:nonzero;fill:url(#linear6);" d="M 91.6875 94.375 C 91.6875 94.375 71.953125 119.992188 73.960938 131.488281 C 75.972656 142.984375 80.820312 154.699219 80.820312 154.699219 L 94.0625 98.164062 Z M 91.6875 94.375 "/>
<path style=" stroke:none;fill-rule:nonzero;fill:rgb(18.82353%,18.431373%,27.843139%);fill-opacity:1;" d="M 82.488281 161.890625 C 86.21875 154.714844 104.398438 170.179688 106.691406 177.859375 C 108.988281 185.539062 94.054688 212.519531 86.304688 220.847656 C 78.550781 229.175781 64.1875 236.628906 55.007812 239.214844 C 55.007812 239.214844 51.773438 234.898438 52.414062 233.125 C 53.0625 231.347656 72.085938 217.480469 73.804688 209.105469 C 75.527344 200.730469 78.75 169.066406 82.480469 161.886719 Z M 82.488281 161.890625 "/>
<path style=" stroke:none;fill-rule:nonzero;fill:rgb(29.803923%,68.627453%,31.37255%);fill-opacity:1;" d="M 170.207031 95.082031 C 170.207031 95.082031 167.910156 88.414062 168.292969 87.679688 C 168.679688 86.941406 170.910156 85.253906 171.960938 86.238281 C 173.011719 87.226562 175.152344 93.355469 175.152344 93.355469 L 197.574219 85.699219 C 197.574219 85.699219 200.074219 85.308594 199.8125 88.042969 C 199.546875 90.78125 175.421875 100.367188 175.421875 100.367188 C 175.421875 100.367188 173.460938 102.378906 170.203125 95.070312 Z M 170.207031 95.082031 "/>
<path style=" stroke:none;fill-rule:nonzero;fill:url(#linear7);" d="M 170.207031 95.082031 C 170.207031 95.082031 167.910156 88.414062 168.292969 87.679688 C 168.679688 86.941406 170.910156 85.253906 171.960938 86.238281 C 173.011719 87.226562 175.152344 93.355469 175.152344 93.355469 L 197.574219 85.699219 C 197.574219 85.699219 200.074219 85.308594 199.8125 88.042969 C 199.546875 90.78125 175.421875 100.367188 175.421875 100.367188 C 175.421875 100.367188 173.460938 102.378906 170.203125 95.070312 Z M 170.207031 95.082031 "/>
<path style=" stroke:none;fill-rule:nonzero;fill:rgb(100%,66.666669%,44.313726%);fill-opacity:1;" d="M 116.539062 57.253906 C 116.976562 57.390625 117.683594 59.425781 117.871094 59.800781 C 118.894531 61.890625 119.820312 64.027344 120.589844 66.222656 C 122.152344 70.714844 124.207031 77.914062 119.910156 81.457031 C 118.492188 82.625 116.695312 83.269531 114.871094 83.460938 C 114.457031 83.503906 114.03125 83.527344 113.675781 83.742188 C 113.25 84 113.015625 84.472656 112.828125 84.9375 C 112.265625 86.308594 111.898438 87.761719 111.738281 89.238281 C 111.570312 90.808594 111.515625 92.304688 111.523438 93.894531 C 109.65625 93.660156 107.710938 93.394531 106.171875 92.320312 C 105.582031 91.914062 105.070312 91.402344 104.472656 91.015625 C 102.605469 89.800781 99.886719 89.742188 98.71875 87.851562 C 101.179688 85.324219 102.617188 81.042969 101.261719 77.675781 C 98.945312 72.148438 100.195312 52.195312 116.542969 57.253906 Z M 116.539062 57.253906 "/>
<path style=" stroke:none;fill-rule:nonzero;fill:rgb(13.725491%,12.156863%,12.54902%);fill-opacity:1;" d="M 96.203125 51.816406 C 85.492188 62.035156 81.101562 55.835938 75.75 58.660156 C 70.398438 61.488281 68.339844 62.496094 70.285156 73.144531 C 72.226562 83.789062 62.652344 81.492188 60.359375 87.9375 C 53.796875 106.351562 64.675781 109.566406 76.816406 109.054688 C 88.960938 108.546875 87.816406 86.382812 96.769531 85.523438 C 105.71875 84.664062 107.554688 86.003906 111.179688 74.507812 C 113.308594 67.746094 111.792969 64.792969 114.691406 62.496094 C 118.386719 59.566406 119.675781 53.21875 115.816406 50.515625 C 111.570312 47.539062 103.027344 45.316406 96.210938 51.816406 Z M 96.203125 51.816406 "/>
<path style=" stroke:none;fill-rule:nonzero;fill:rgb(29.803923%,68.627453%,31.37255%);fill-opacity:1;" d="M 94.21875 92.6875 C 94.21875 92.6875 93.324219 88.609375 96.257812 87.203125 C 99.191406 85.800781 107.605469 85.121094 108.773438 87.203125 C 109.945312 89.285156 111.226562 93.996094 112.476562 94.109375 C 113.722656 94.222656 118.867188 102.394531 118.867188 102.394531 C 118.867188 102.394531 119.941406 125.105469 120 133.921875 C 120.101562 147.929688 111.707031 169.792969 100.117188 168.011719 C 88.523438 166.230469 80.074219 163.007812 80.261719 157.003906 C 80.453125 150.996094 90.238281 105.738281 89.539062 100.636719 C 88.777344 95.140625 94.007812 92.496094 94.207031 92.683594 Z M 94.21875 92.6875 "/>
<path style=" stroke:none;fill-rule:nonzero;fill:url(#linear8);" d="M 94.21875 92.6875 C 94.21875 92.6875 93.324219 88.609375 96.257812 87.203125 C 99.191406 85.800781 107.605469 85.121094 108.773438 87.203125 C 109.945312 89.285156 111.226562 93.996094 112.476562 94.109375 C 113.722656 94.222656 118.867188 102.394531 118.867188 102.394531 C 118.867188 102.394531 119.941406 125.105469 120 133.921875 C 120.101562 147.929688 111.707031 169.792969 100.117188 168.011719 C 88.523438 166.230469 80.074219 163.007812 80.261719 157.003906 C 80.453125 150.996094 90.238281 105.738281 89.539062 100.636719 C 88.777344 95.140625 94.007812 92.496094 94.207031 92.683594 Z M 94.21875 92.6875 "/>
<path style=" stroke:none;fill-rule:nonzero;fill:rgb(29.803923%,68.627453%,31.37255%);fill-opacity:1;" d="M 104.621094 99.769531 C 104.621094 99.769531 109.085938 90.964844 115.410156 96.316406 C 121.734375 101.671875 129.496094 121.457031 134.902344 121.566406 C 140.308594 121.675781 162.523438 103.777344 164.460938 105.394531 C 166.398438 107.015625 169.765625 111.054688 167.953125 114.503906 C 166.140625 117.953125 141.300781 139.703125 130.601562 137.664062 C 119.902344 135.628906 97.097656 121.019531 104.621094 99.769531 Z M 104.621094 99.769531 "/>
<path style=" stroke:none;fill-rule:nonzero;fill:url(#linear9);" d="M 104.621094 99.769531 C 104.621094 99.769531 109.085938 90.964844 115.410156 96.316406 C 121.734375 101.671875 129.496094 121.457031 134.902344 121.566406 C 140.308594 121.675781 162.523438 103.777344 164.460938 105.394531 C 166.398438 107.015625 169.765625 111.054688 167.953125 114.503906 C 166.140625 117.953125 141.300781 139.703125 130.601562 137.664062 C 119.902344 135.628906 97.097656 121.019531 104.621094 99.769531 Z M 104.621094 99.769531 "/>
<path style=" stroke:none;fill-rule:nonzero;fill:rgb(100%,66.666669%,44.313726%);fill-opacity:1;" d="M 165.175781 106.042969 C 165.175781 106.042969 169.6875 97.636719 170.058594 96.121094 C 170.429688 94.601562 171.558594 96.882812 171.558594 96.882812 C 171.558594 96.882812 175.441406 93.816406 176.089844 92.476562 C 176.734375 91.140625 182.359375 89.070312 184.894531 89.398438 C 187.433594 89.730469 183.167969 91.289062 183.167969 91.289062 C 183.167969 91.289062 181.15625 92.207031 180.101562 97.261719 C 179.050781 102.3125 177.984375 106.632812 173.320312 108.75 C 168.660156 110.867188 168.367188 111.34375 168.367188 111.34375 C 168.367188 111.34375 167.269531 106.894531 165.175781 106.042969 Z M 165.175781 106.042969 "/>
<path style=" stroke:none;fill-rule:nonzero;fill:rgb(13.725491%,12.156863%,12.54902%);fill-opacity:1;" d="M 82.488281 161.890625 C 82.488281 161.890625 76.933594 174.613281 87.265625 186.492188 C 97.601562 198.367188 105.304688 207.636719 103.128906 226.019531 C 100.949219 244.398438 106.175781 253.871094 106.175781 253.871094 L 112.273438 253.871094 C 112.273438 253.871094 121.726562 219.820312 120.097656 205.402344 C 118.464844 190.984375 111.347656 161.941406 111.347656 161.941406 C 111.347656 161.941406 97.421875 155.292969 82.488281 161.898438 Z M 82.488281 161.890625 "/>
<path style=" stroke:none;fill-rule:nonzero;fill:rgb(100%,66.666669%,44.313726%);fill-opacity:1;" d="M 106.175781 253.859375 L 106.175781 261.628906 L 122.964844 261.628906 C 122.964844 261.628906 112.914062 259.8125 112.625 257.746094 C 112.34375 255.679688 112.265625 253.867188 112.265625 253.867188 L 106.171875 253.867188 Z M 106.175781 253.859375 "/>
<path style=" stroke:none;fill-rule:nonzero;fill:rgb(13.725491%,12.156863%,12.54902%);fill-opacity:1;" d="M 107.417969 259.242188 C 106.65625 259.085938 105.714844 258.894531 105.234375 259.507812 C 105.078125 259.734375 104.976562 259.996094 104.941406 260.269531 C 104.789062 261.023438 104.734375 261.792969 104.777344 262.558594 C 104.808594 263.136719 104.941406 263.785156 105.4375 264.066406 C 105.75 264.210938 106.09375 264.265625 106.433594 264.226562 L 123.839844 263.910156 C 124.507812 263.910156 125.273438 263.839844 125.644531 263.285156 C 125.8125 263.015625 125.890625 262.699219 125.863281 262.378906 C 125.765625 261.503906 125.292969 260.71875 124.566406 260.21875 C 123.847656 259.726562 123.042969 259.363281 122.195312 259.144531 C 120.035156 258.492188 116.585938 257.261719 114.457031 258.15625 C 112.128906 259.117188 109.980469 259.777344 107.410156 259.242188 Z M 107.417969 259.242188 "/>
<path style=" stroke:none;fill-rule:nonzero;fill:rgb(100%,66.666669%,44.313726%);fill-opacity:1;" d="M 52.253906 234.292969 L 45.347656 237.820312 L 53.753906 252.355469 C 53.753906 252.355469 50.304688 242.742188 51.929688 241.464844 C 53.5625 240.1875 55.105469 239.214844 55.105469 239.214844 L 52.246094 234.292969 Z M 52.253906 234.292969 "/>
<path style=" stroke:none;fill-rule:nonzero;fill:rgb(13.725491%,12.156863%,12.54902%);fill-opacity:1;" d="M 48.007812 237.707031 C 47.765625 236.96875 47.453125 236.058594 46.6875 235.949219 C 46.410156 235.925781 46.132812 235.96875 45.882812 236.074219 C 45.15625 236.328125 44.460938 236.664062 43.8125 237.085938 C 43.332031 237.394531 42.839844 237.835938 42.839844 238.410156 C 42.875 238.753906 42.996094 239.074219 43.199219 239.351562 C 46.199219 244.324219 49.195312 249.292969 52.195312 254.269531 C 52.542969 254.832031 52.980469 255.46875 53.640625 255.523438 C 53.957031 255.535156 54.269531 255.4375 54.535156 255.253906 C 55.246094 254.730469 55.703125 253.925781 55.769531 253.042969 C 55.835938 252.175781 55.746094 251.296875 55.519531 250.453125 C 55.015625 248.261719 54.328125 244.644531 52.5 243.253906 C 50.476562 241.726562 48.835938 240.199219 48.011719 237.707031 Z M 48.007812 237.707031 "/>
</g>
</svg>
